# xmcd CD database file
#
# Track frame offsets:
#	150
#	15279
#	30512
#	44793
#	59626
#	74489
#	88793
#	101847
#	114873
#	127118
#	141965
#	156301
#	169643
#	182039
#	193778
#	205555
#	217845
#	231939
#
# Disc length: 3273 seconds
#
# Revision: 0
# Processed by: cddbd v1.5.1PL0 Copyright (c) Steve Scherf et al.
# Submitted via: CDex 1.51
#
DISCID=040cc712
DTITLE=Various Artist - Jazz Ladies
DYEAR=1900
DGENRE=Jazz
TTITLE0=The Man I Love
TTITLE1=Stormy Weather
TTITLE2=Can´t Help Lovin´Dat Man
TTITLE3=Love And Kisses
TTITLE4=Undecided
TTITLE5=Five O´Clock Whistle
TTITLE6=That´s When A Woman Loves A Heel
TTITLE7=Bues For A Day
TTITLE8=Oo-Wee Walkie Talkie
TTITLE9=I´ll Walk Alone
TTITLE10=A Stranger In Town
TTITLE11=I Should Care
TTITLE12=It´s Been A Long, Long Time
TTITLE13=Across The Alley From The Alamo
TTITLE14=Shoo-Fly Pie And Apple Pan Dowdy
TTITLE15=If I Coul Be With You One Hour Tonight
TTITLE16=You Were Only Foolin´
TTITLE17=Sharecroppin´ Blues
EXTD=
EXTT0=
EXTT1=
EXTT2=
EXTT3=
EXTT4=
EXTT5=
EXTT6=
EXTT7=
EXTT8=
EXTT9=
EXTT10=
EXTT11=
EXTT12=
EXTT13=
EXTT14=
EXTT15=
EXTT16=
EXTT17=
PLAYORDER=
